# xmcd CD database file
#
# Track frame offsets:
#	150
#	5785
#	25964
#	49055
#	76962
#	97109
#	110863
#	126659
#	150066
#	156176
#	174952
#
# Disc length: 2725 seconds
#
# Revision: 2
# Processed by: cddbd v1.5.2PL0 Copyright (c) Steve Scherf et al.
# Submitted via: CDex 1.70beta2
#
DISCID=880aa30b
DTITLE=ハナレグミ - オアシス
DYEAR=2011
DGENRE=Blues
TTITLE0=あおい　きれい
TTITLE1=Crazy Love
TTITLE2=オアシス
TTITLE3=Spark
TTITLE4=きみはぼくのともだち
TTITLE5=hi tide lo tide
TTITLE6=ごっつあんです ～今夜はジュワイ欲中毒～
TTITLE7=か！た！！かたち！！！
TTITLE8=グニャ～てなる
TTITLE9=天国さん
TTITLE10=ちきしょー
EXTD=YEAR: 2011
EXTT0=
EXTT1=
EXTT2=
EXTT3=
EXTT4=
EXTT5=
EXTT6=
EXTT7=
EXTT8=
EXTT9=
EXTT10=
PLAYORDER=
